<?xml version="1.0" encoding="UTF-8"?>
<svg xmlns="http://www.w3.org/2000/svg" xmlns:xlink="http://www.w3.org/1999/xlink" width="573.03" height="573.03" viewBox="736.89 532.29 573.03 573.03">
<path fill-rule="nonzero" fill="rgb(88.235474%, 11.372375%, 20.391846%)" fill-opacity="1" d="M 1056.238281 983.695312 L 1056.238281 699.324219 L 1010.855469 643.046875 L 1010.855469 1002.988281 Z M 1056.238281 983.695312 "/>
<path fill-rule="nonzero" fill="rgb(13.725281%, 12.156677%, 12.548828%)" fill-opacity="1" d="M 1303.824219 619.757812 L 1011.304688 619.757812 L 1068.171875 690.386719 L 1274.507812 653.832031 Z M 1303.824219 619.757812 "/>
<path fill-rule="nonzero" fill="rgb(13.725281%, 12.156677%, 12.548828%)" fill-opacity="1" d="M 1282.136719 660.289062 L 1282.136719 699.152344 L 1309.722656 687.777344 L 1309.722656 628.234375 Z M 1282.136719 660.289062 "/>
<path fill-rule="nonzero" fill="rgb(98.823547%, 81.96106%, 5.490112%)" fill-opacity="1" d="M 1071.128906 700.011719 L 1071.128906 985.484375 L 1272.039062 993.390625 L 1272.140625 664.398438 Z M 1071.128906 700.011719 "/>
<path fill-rule="nonzero" fill="rgb(13.725281%, 12.156677%, 12.548828%)" fill-opacity="1" d="M 737.078125 581.476562 L 792.355469 581.476562 L 792.355469 731.808594 L 737.078125 731.808594 Z M 737.078125 581.476562 "/>
<path fill-rule="nonzero" fill="rgb(98.823547%, 81.96106%, 5.490112%)" fill-opacity="1" d="M 802.351562 581.476562 L 995.863281 581.476562 L 995.863281 731.808594 L 802.351562 731.808594 Z M 802.351562 581.476562 "/>
<path fill-rule="nonzero" fill="rgb(88.235474%, 11.372375%, 20.391846%)" fill-opacity="1" d="M 737.078125 741.804688 L 865.421875 741.804688 L 865.421875 895.035156 L 737.078125 895.035156 Z M 737.078125 741.804688 "/>
<path fill-rule="nonzero" fill="rgb(98.823547%, 81.96106%, 5.490112%)" fill-opacity="1" d="M 737.078125 905.03125 L 827.9375 905.03125 L 827.9375 1013.183594 L 737.078125 1013.183594 Z M 737.078125 905.03125 "/>
<path fill-rule="nonzero" fill="rgb(88.235474%, 11.372375%, 20.391846%)" fill-opacity="1" d="M 837.933594 905.03125 L 921.398438 905.03125 L 921.398438 1013.183594 L 837.933594 1013.183594 Z M 837.933594 905.03125 "/>
<path fill-rule="nonzero" fill="rgb(13.725281%, 12.156677%, 12.548828%)" fill-opacity="1" d="M 875.417969 741.804688 L 995.5625 741.804688 L 995.5625 895.035156 L 875.417969 895.035156 Z M 875.417969 741.804688 "/>
<path fill-rule="nonzero" fill="rgb(13.725281%, 12.156677%, 12.548828%)" fill-opacity="1" d="M 931.390625 905.03125 L 995.863281 905.03125 L 995.863281 1013.183594 L 931.390625 1013.183594 Z M 931.390625 905.03125 "/>
<path fill-rule="nonzero" fill="rgb(13.725281%, 12.156677%, 12.548828%)" fill-opacity="1" d="M 737.078125 1023.179688 L 1309.625 1023.179688 L 1309.625 1056.0625 L 737.078125 1056.0625 Z M 737.078125 1023.179688 "/>
<path fill-rule="nonzero" fill="rgb(88.235474%, 11.372375%, 20.391846%)" fill-opacity="1" d="M 1005.859375 581.476562 L 1309.722656 581.476562 L 1309.722656 609.761719 L 1005.859375 609.761719 Z M 1005.859375 581.476562 "/>
<path fill-rule="nonzero" fill="rgb(88.235474%, 11.372375%, 20.391846%)" fill-opacity="1" d="M 1294.269531 1013.183594 L 1275.730469 1003.539062 L 1067.0625 995.332031 L 1025.28125 1013.183594 Z M 1294.269531 1013.183594 "/>
</svg>