<svg xmlns="http://www.w3.org/2000/svg" viewBox="0 0 1080 372" role="img" aria-label="The four Idea Factory stage glyphs as a system">
  <title>Idea Factory — Stage Glyph System</title>
  

  <g transform="translate(51,28) scale(1.4)">
    <rect x="26" y="26" width="30" height="30" fill="#e21833"></rect>
    <rect x="67" y="29" width="24" height="24" fill="none" stroke="#e21833" stroke-width="6"></rect>
    <rect x="29" y="67" width="24" height="24" fill="none" stroke="#e21833" stroke-width="6"></rect>
    <rect x="67" y="67" width="24" height="24" fill="none" stroke="#e21833" stroke-width="6"></rect>
  </g>
  <text class="num" x="135" y="232" text-anchor="middle">01</text>
  <text class="name" x="135" y="262" text-anchor="middle">BLUEPRINT</text>
  <text class="tag" x="135" y="288" text-anchor="middle">Learn to think like a builder.</text>

  <g transform="translate(321,28) scale(1.4)">
    <rect x="26" y="26" width="30" height="30" fill="#000000"></rect>
    <rect x="26" y="64" width="30" height="30" fill="#000000"></rect>
    <rect x="67" y="29" width="24" height="24" fill="none" stroke="#e21833" stroke-width="6"></rect>
    <rect x="67" y="67" width="24" height="24" fill="none" stroke="#e21833" stroke-width="6"></rect>
    <path d="M32 41.6 L38 47.6 L49.4 34.4" fill="none" stroke="#ffffff" stroke-width="4.8" stroke-linecap="square" stroke-linejoin="miter"></path>
    <path d="M32 79.6 L38 85.6 L49.4 72.4" fill="none" stroke="#ffffff" stroke-width="4.8" stroke-linecap="square" stroke-linejoin="miter"></path>
  </g>
  <text class="num" x="405" y="232" text-anchor="middle">02</text>
  <text class="name" x="405" y="262" text-anchor="middle">PROVING GROUND</text>
  <text class="tag" x="405" y="288" text-anchor="middle">Where your idea meets the real world.</text>

  <g transform="translate(591,28) scale(1.4)">
    <rect x="7" y="37.5" width="30" height="30" fill="#e21833"></rect>
    <rect x="45" y="37.5" width="30" height="30" fill="#000000"></rect>
    <rect x="83" y="37.5" width="30" height="30" fill="#ffd200"></rect>
    <rect x="7" y="75.5" width="106" height="7" fill="#7f7f7f"></rect>
  </g>
  <text class="num" x="675" y="232" text-anchor="middle">03</text>
  <text class="name" x="675" y="262" text-anchor="middle">ASSEMBLY LINE</text>
  <text class="tag" x="675" y="288" text-anchor="middle">This is where companies get built.</text>

  <g transform="translate(861,28) scale(1.4)">
    <rect x="83" y="7" width="30" height="30" fill="#ffd200"></rect>
    <rect x="83" y="45" width="30" height="30" fill="#ffd200"></rect>
    <rect x="45" y="45" width="30" height="30" fill="#000000"></rect>
    <rect x="83" y="83" width="30" height="30" fill="#ffd200"></rect>
    <rect x="45" y="83" width="30" height="30" fill="#000000"></rect>
    <rect x="7" y="83" width="30" height="30" fill="#e21833"></rect>
  </g>
  <text class="num" x="945" y="232" text-anchor="middle">04</text>
  <text class="name" x="945" y="262" text-anchor="middle">SCALE-UP</text>
  <text class="tag" x="945" y="288" text-anchor="middle">Where it takes off.</text>

  <line x1="60" y1="320" x2="1020" y2="320" stroke="#e6e6e6" stroke-width="1"></line>
  <rect x="356" y="338" width="16" height="16" fill="#e21833"></rect>
  <text class="leg" x="378" y="351">In the red</text>
  <text class="arr" x="452" y="351">→</text>
  <rect x="480" y="338" width="16" height="16" fill="#000000"></rect>
  <text class="leg" x="502" y="351">In the black</text>
  <text class="arr" x="588" y="351">→</text>
  <rect x="616" y="338" width="16" height="16" fill="#ffd200" stroke="#cccccc" stroke-width="1"></rect>
  <text class="leg" x="638" y="351">Struck gold</text>
</svg>