<?xml version="1.0"?><svg id="Layer_1" xmlns="http://www.w3.org/2000/svg" viewBox="0 0 1267.34 494.8"><defs></defs><path class="cls-2" d="M704.8,302.95h-72.28V47.99h72.28v254.96Z"></path><path class="cls-2" d="M902.65,302.85h-66.07v-13.48c-12.78,10.2-25.19,17.48-45.27,17.48-35.78,0-63.52-28.05-63.52-99.07s24.46-100.16,66.07-100.16c19.35,0,32.12,8.74,42.71,16.75V48.27l66.07-11.77v266.35ZM836.58,243.95v-73.21c-6.57-5.46-13.14-9.11-23.36-9.11-13.51,0-20.81,8.38-20.81,44.07,0,38.24,7.3,47.35,21.17,47.35,9.49,0,16.43-3.64,23-9.1Z"></path><path class="cls-2" d="M1090.65,213.35c0,5.46,0,9.47-.37,12.75h-112.44c2.19,21.13,14.6,30.59,32.49,30.59,16.79,0,30.66-3.64,49.65-13.48l25.19,41.89c-23.73,13.84-48.19,21.85-78.12,21.85-57.68,0-89.44-40.79-89.44-99.43,0-65.92,37.24-99.8,87.61-99.8s85.42,34.6,85.42,105.63ZM1032.61,185.31c-3.29-19.3-9.86-29.14-29.2-29.14-14.97,0-23.36,10.2-25.55,29.14h54.76Z"></path><path class="cls-2" d="M1267.34,302.95h-62.06v-12.75c-12.41,9.47-29.2,16.75-46.73,16.75-37.24,0-62.06-22.95-62.06-65.92s28.47-62.28,68.99-62.28c17.52,0,29.2,3.28,39.79,8.01v-9.47c0-16.75-9.13-22.58-27.01-22.58-19.71,0-34.68,3.64-53.3,13.84l-17.16-43.34c23.36-11.29,49.28-17.48,82.5-17.48,53.66,0,77.03,26.59,77.03,71.02v124.2ZM1205.28,251.23v-26.22c-7.3-3.28-15.7-5.46-28.11-5.46-13.51,0-20.44,7.28-20.44,20.4,0,12.02,6.21,20.76,20.44,20.76,10.95,0,21.9-4.37,28.11-9.47Z"></path><path class="cls-2" d="M733.6,344.57h-65.89v17.67h39.97v29.87h-39.97v49.9h-35.23v-127.48h101.12v30.05Z"></path><path class="cls-2" d="M811.54,442h-31.03v-6.37c-6.21,4.74-14.6,8.38-23.36,8.38-18.62,0-31.03-11.47-31.03-32.96s14.24-31.14,34.5-31.14c8.76,0,14.6,1.64,19.9,4.01v-4.73c0-8.38-4.56-11.29-13.51-11.29-9.86,0-17.34,1.82-26.65,6.92l-8.58-21.67c11.68-5.65,24.64-8.74,41.25-8.74,26.83,0,38.51,13.29,38.51,35.51v62.1ZM780.51,416.14v-13.11c-3.65-1.64-7.85-2.73-14.05-2.73-6.75,0-10.22,3.64-10.22,10.2,0,6.01,3.1,10.38,10.22,10.38,5.48,0,10.95-2.19,14.05-4.74Z"></path><path class="cls-2" d="M906.82,421.24c-11.13,16.39-21.54,22.76-38.51,22.76-28.11,0-44.9-17.85-44.9-50.08,0-29.32,14.97-49.54,45.63-49.54,18.07,0,28.47,8.38,36.87,21.85l-22.63,17.12c-4.56-8.38-7.67-12.38-14.78-12.38-8.4,0-12.59,8.38-12.59,23.49s4.56,22.95,13.51,22.95c6.21,0,10.59-3.46,16.61-12.38l20.81,16.21Z"></path><path class="cls-2" d="M981.1,411.04l-4.2,27.86c-6.39,3.1-14.42,5.1-23.73,5.1-17.34,0-25.37-8.74-25.37-30.41v-41.52h-14.6v-25.68h14.6v-26.2l31.94-5.67v31.87h20.81v25.68h-20.81v34.6c0,7.28,2.74,9.47,8.21,9.47,4.38,0,8.03-1.64,13.14-5.1Z"></path><path class="cls-2" d="M1079.67,394.1c0,32.96-19.17,49.9-45.63,49.9s-45.45-16.94-45.45-49.9,18.98-49.72,45.45-49.72,45.63,16.39,45.63,49.72ZM1047,394.1c0-16.21-4.38-23.13-12.96-23.13s-12.96,6.92-12.96,23.13,4.38,23.31,12.96,23.31,12.96-7.47,12.96-23.31Z"></path><path class="cls-2" d="M1161.07,348.39l-7.67,34.06c-4.2-4.55-8.94-8.01-15.33-8.01-8.03,0-12.96,3.82-12.96,15.48v52.08h-32.85v-95.61h32.85v6.92c5.66-5.46,12.05-8.92,20.44-8.92,6.94,0,11.68,1.64,15.51,4.01Z"></path><path class="cls-2" d="M1266.57,346.39l-46.36,129.3h-31.39l12.05-29.68-36.5-99.62h34.86l9.13,34.05c2.19,8.01,6.21,24.95,7.3,34.06,1.28-9.11,5.29-26.04,7.48-34.42l8.94-33.69h34.5Z"></path><polygon class="cls-3" points="592.8 494.8 0 494.8 0 0 592.9 0 592.9 123.05 555.3 138.55 555.3 424.19 592.8 443.81 592.8 494.8"></polygon><polygon class="cls-2" points="329.3 412.4 329.3 127.9 283.9 71.6 283.9 431.7 329.3 412.4"></polygon><polygon class="cls-1" points="577 48.3 284.35 48.3 341.24 118.96 547.67 82.39 577 48.3"></polygon><polygon class="cls-1" points="555.3 88.85 555.3 127.73 582.9 116.35 582.9 56.78 555.3 88.85"></polygon><polygon class="cls-4" points="344.2 128.59 344.2 414.19 545.2 422.1 545.3 92.96 344.2 128.59"></polygon><rect class="cls-1" x="10" y="10" width="55.3" height="150.4"></rect><rect class="cls-4" x="75.3" y="10" width="193.6" height="150.4"></rect><rect class="cls-2" x="10" y="170.4" width="128.4" height="153.3"></rect><rect class="cls-4" x="10" y="333.7" width="90.9" height="108.2"></rect><rect class="cls-2" x="110.9" y="333.7" width="83.5" height="108.2"></rect><rect class="cls-1" x="148.4" y="170.4" width="120.2" height="153.3"></rect><rect class="cls-1" x="204.4" y="333.7" width="64.5" height="108.2"></rect><rect class="cls-1" x="10" y="451.9" width="572.8" height="32.9"></rect><rect class="cls-2" x="278.9" y="10" width="304" height="28.3"></rect><polygon class="cls-2" points="567.44 441.9 548.89 432.25 340.13 424.04 298.33 441.9 567.44 441.9"></polygon></svg>