<?xml version="1.0"?>
<svg id="if-mark" data-name="Idea Factory Mark" xmlns="http://www.w3.org/2000/svg" viewBox="0 -49.05 592.9 592.9">
  <defs>
    
  </defs>
  <polygon class="cls-3" points="592.8 494.8 0 494.8 0 0 592.9 0 592.9 123.05 555.3 138.55 555.3 424.19 592.8 443.81 592.8 494.8"></polygon>
  <polygon class="cls-2" points="329.3 412.4 329.3 127.9 283.9 71.6 283.9 431.7 329.3 412.4"></polygon>
  <polygon class="cls-1" points="577 48.3 284.35 48.3 341.24 118.96 547.67 82.39 577 48.3"></polygon>
  <polygon class="cls-1" points="555.3 88.85 555.3 127.73 582.9 116.35 582.9 56.78 555.3 88.85"></polygon>
  <polygon class="cls-4" points="344.2 128.59 344.2 414.19 545.2 422.1 545.3 92.96 344.2 128.59"></polygon>
  <rect class="cls-1" x="10" y="10" width="55.3" height="150.4"></rect>
  <rect class="cls-4" x="75.3" y="10" width="193.6" height="150.4"></rect>
  <rect class="cls-2" x="10" y="170.4" width="128.4" height="153.3"></rect>
  <rect class="cls-4" x="10" y="333.7" width="90.9" height="108.2"></rect>
  <rect class="cls-2" x="110.9" y="333.7" width="83.5" height="108.2"></rect>
  <rect class="cls-1" x="148.4" y="170.4" width="120.2" height="153.3"></rect>
  <rect class="cls-1" x="204.4" y="333.7" width="64.5" height="108.2"></rect>
  <rect class="cls-1" x="10" y="451.9" width="572.8" height="32.9"></rect>
  <rect class="cls-2" x="278.9" y="10" width="304" height="28.3"></rect>
  <polygon class="cls-2" points="567.44 441.9 548.89 432.25 340.13 424.04 298.33 441.9 567.44 441.9"></polygon>
</svg>