<svg xmlns="http://www.w3.org/2000/svg" viewBox="0 0 760 690" role="img" aria-label="Journey bar wayfinding states with stage names">
  <title>Idea Factory — Journey Bar (page wayfinding)</title>
  
  <rect width="760" height="690" fill="#ffffff"></rect>
  <text class="ttl" x="40" y="42">JOURNEY BAR — PAGE WAYFINDING</text>
  <text class="sub" x="40" y="66">Each row is the bar as it appears on a different program page: the current stage in full colour, the rest greyed.</text>
  <g transform="translate(95,104) scale(0.5)">
<rect x="18" y="18" width="38" height="38" fill="#e21833"></rect>
<rect x="64.5" y="18.5" width="37" height="37" fill="none" stroke="#e21833" stroke-width="7"></rect>
<rect x="18.5" y="64.5" width="37" height="37" fill="none" stroke="#e21833" stroke-width="7"></rect>
<rect x="64.5" y="64.5" width="37" height="37" fill="none" stroke="#e21833" stroke-width="7"></rect>
</g>
<text x="125" y="184" text-anchor="middle" font-family="Interstate, Overpass, Arial, sans-serif" font-size="11" font-weight="800" fill="#111111" letter-spacing="0.5">BLUEPRINT</text>
<g transform="translate(265,104) scale(0.5)">
<rect x="18" y="18" width="38" height="38" fill="#c8c8c8"></rect>
<rect x="18" y="64" width="38" height="38" fill="#c8c8c8"></rect>
<rect x="64.5" y="18.5" width="37" height="37" fill="none" stroke="#c8c8c8" stroke-width="7"></rect>
<rect x="64.5" y="64.5" width="37" height="37" fill="none" stroke="#c8c8c8" stroke-width="7"></rect>
<path d="M26 37 L33 45 L49 27" fill="none" stroke="#eeeeee" stroke-width="5" stroke-linecap="square" stroke-linejoin="miter"></path>
<path d="M26 83 L33 91 L49 73" fill="none" stroke="#eeeeee" stroke-width="5" stroke-linecap="square" stroke-linejoin="miter"></path>
</g>
<text x="295" y="184" text-anchor="middle" font-family="Interstate, Overpass, Arial, sans-serif" font-size="11" font-weight="600" fill="#bdbdbd" letter-spacing="0.5">PROVING GROUND</text>
<g transform="translate(435,104) scale(0.5)">
<rect x="12" y="44" width="28" height="28" fill="#c8c8c8"></rect>
<rect x="46" y="44" width="28" height="28" fill="#c8c8c8"></rect>
<rect x="80" y="44" width="28" height="28" fill="#c8c8c8"></rect>
<rect x="6" y="76" width="108" height="8" fill="#dcdcdc"></rect>
</g>
<text x="465" y="184" text-anchor="middle" font-family="Interstate, Overpass, Arial, sans-serif" font-size="11" font-weight="600" fill="#bdbdbd" letter-spacing="0.5">ASSEMBLY LINE</text>
<g transform="translate(605,104) scale(0.5)">
<rect x="16" y="78" width="26" height="26" fill="#c8c8c8"></rect>
<rect x="48" y="78" width="26" height="26" fill="#c8c8c8"></rect>
<rect x="48" y="46" width="26" height="26" fill="#c8c8c8"></rect>
<rect x="80" y="78" width="26" height="26" fill="#c8c8c8"></rect>
<rect x="80" y="46" width="26" height="26" fill="#c8c8c8"></rect>
<rect x="80" y="14" width="26" height="26" fill="#c8c8c8"></rect>
</g>
<text x="635" y="184" text-anchor="middle" font-family="Interstate, Overpass, Arial, sans-serif" font-size="11" font-weight="600" fill="#bdbdbd" letter-spacing="0.5">SCALE-UP</text><g transform="translate(95,250) scale(0.5)">
<rect x="18" y="18" width="38" height="38" fill="#c8c8c8"></rect>
<rect x="64.5" y="18.5" width="37" height="37" fill="none" stroke="#c8c8c8" stroke-width="7"></rect>
<rect x="18.5" y="64.5" width="37" height="37" fill="none" stroke="#c8c8c8" stroke-width="7"></rect>
<rect x="64.5" y="64.5" width="37" height="37" fill="none" stroke="#c8c8c8" stroke-width="7"></rect>
</g>
<text x="125" y="330" text-anchor="middle" font-family="Interstate, Overpass, Arial, sans-serif" font-size="11" font-weight="600" fill="#bdbdbd" letter-spacing="0.5">BLUEPRINT</text>
<g transform="translate(265,250) scale(0.5)">
<rect x="18" y="18" width="38" height="38" fill="#000000"></rect>
<rect x="18" y="64" width="38" height="38" fill="#000000"></rect>
<rect x="64.5" y="18.5" width="37" height="37" fill="none" stroke="#e21833" stroke-width="7"></rect>
<rect x="64.5" y="64.5" width="37" height="37" fill="none" stroke="#e21833" stroke-width="7"></rect>
<path d="M26 37 L33 45 L49 27" fill="none" stroke="#ffffff" stroke-width="5" stroke-linecap="square" stroke-linejoin="miter"></path>
<path d="M26 83 L33 91 L49 73" fill="none" stroke="#ffffff" stroke-width="5" stroke-linecap="square" stroke-linejoin="miter"></path>
</g>
<text x="295" y="330" text-anchor="middle" font-family="Interstate, Overpass, Arial, sans-serif" font-size="11" font-weight="800" fill="#111111" letter-spacing="0.5">PROVING GROUND</text>
<g transform="translate(435,250) scale(0.5)">
<rect x="12" y="44" width="28" height="28" fill="#c8c8c8"></rect>
<rect x="46" y="44" width="28" height="28" fill="#c8c8c8"></rect>
<rect x="80" y="44" width="28" height="28" fill="#c8c8c8"></rect>
<rect x="6" y="76" width="108" height="8" fill="#dcdcdc"></rect>
</g>
<text x="465" y="330" text-anchor="middle" font-family="Interstate, Overpass, Arial, sans-serif" font-size="11" font-weight="600" fill="#bdbdbd" letter-spacing="0.5">ASSEMBLY LINE</text>
<g transform="translate(605,250) scale(0.5)">
<rect x="16" y="78" width="26" height="26" fill="#c8c8c8"></rect>
<rect x="48" y="78" width="26" height="26" fill="#c8c8c8"></rect>
<rect x="48" y="46" width="26" height="26" fill="#c8c8c8"></rect>
<rect x="80" y="78" width="26" height="26" fill="#c8c8c8"></rect>
<rect x="80" y="46" width="26" height="26" fill="#c8c8c8"></rect>
<rect x="80" y="14" width="26" height="26" fill="#c8c8c8"></rect>
</g>
<text x="635" y="330" text-anchor="middle" font-family="Interstate, Overpass, Arial, sans-serif" font-size="11" font-weight="600" fill="#bdbdbd" letter-spacing="0.5">SCALE-UP</text><g transform="translate(95,396) scale(0.5)">
<rect x="18" y="18" width="38" height="38" fill="#c8c8c8"></rect>
<rect x="64.5" y="18.5" width="37" height="37" fill="none" stroke="#c8c8c8" stroke-width="7"></rect>
<rect x="18.5" y="64.5" width="37" height="37" fill="none" stroke="#c8c8c8" stroke-width="7"></rect>
<rect x="64.5" y="64.5" width="37" height="37" fill="none" stroke="#c8c8c8" stroke-width="7"></rect>
</g>
<text x="125" y="476" text-anchor="middle" font-family="Interstate, Overpass, Arial, sans-serif" font-size="11" font-weight="600" fill="#bdbdbd" letter-spacing="0.5">BLUEPRINT</text>
<g transform="translate(265,396) scale(0.5)">
<rect x="18" y="18" width="38" height="38" fill="#c8c8c8"></rect>
<rect x="18" y="64" width="38" height="38" fill="#c8c8c8"></rect>
<rect x="64.5" y="18.5" width="37" height="37" fill="none" stroke="#c8c8c8" stroke-width="7"></rect>
<rect x="64.5" y="64.5" width="37" height="37" fill="none" stroke="#c8c8c8" stroke-width="7"></rect>
<path d="M26 37 L33 45 L49 27" fill="none" stroke="#eeeeee" stroke-width="5" stroke-linecap="square" stroke-linejoin="miter"></path>
<path d="M26 83 L33 91 L49 73" fill="none" stroke="#eeeeee" stroke-width="5" stroke-linecap="square" stroke-linejoin="miter"></path>
</g>
<text x="295" y="476" text-anchor="middle" font-family="Interstate, Overpass, Arial, sans-serif" font-size="11" font-weight="600" fill="#bdbdbd" letter-spacing="0.5">PROVING GROUND</text>
<g transform="translate(435,396) scale(0.5)">
<rect x="12" y="44" width="28" height="28" fill="#e21833"></rect>
<rect x="46" y="44" width="28" height="28" fill="#000000"></rect>
<rect x="80" y="44" width="28" height="28" fill="#ffd200"></rect>
<rect x="6" y="76" width="108" height="8" fill="#7f7f7f"></rect>
</g>
<text x="465" y="476" text-anchor="middle" font-family="Interstate, Overpass, Arial, sans-serif" font-size="11" font-weight="800" fill="#111111" letter-spacing="0.5">ASSEMBLY LINE</text>
<g transform="translate(605,396) scale(0.5)">
<rect x="16" y="78" width="26" height="26" fill="#c8c8c8"></rect>
<rect x="48" y="78" width="26" height="26" fill="#c8c8c8"></rect>
<rect x="48" y="46" width="26" height="26" fill="#c8c8c8"></rect>
<rect x="80" y="78" width="26" height="26" fill="#c8c8c8"></rect>
<rect x="80" y="46" width="26" height="26" fill="#c8c8c8"></rect>
<rect x="80" y="14" width="26" height="26" fill="#c8c8c8"></rect>
</g>
<text x="635" y="476" text-anchor="middle" font-family="Interstate, Overpass, Arial, sans-serif" font-size="11" font-weight="600" fill="#bdbdbd" letter-spacing="0.5">SCALE-UP</text><g transform="translate(95,542) scale(0.5)">
<rect x="18" y="18" width="38" height="38" fill="#c8c8c8"></rect>
<rect x="64.5" y="18.5" width="37" height="37" fill="none" stroke="#c8c8c8" stroke-width="7"></rect>
<rect x="18.5" y="64.5" width="37" height="37" fill="none" stroke="#c8c8c8" stroke-width="7"></rect>
<rect x="64.5" y="64.5" width="37" height="37" fill="none" stroke="#c8c8c8" stroke-width="7"></rect>
</g>
<text x="125" y="622" text-anchor="middle" font-family="Interstate, Overpass, Arial, sans-serif" font-size="11" font-weight="600" fill="#bdbdbd" letter-spacing="0.5">BLUEPRINT</text>
<g transform="translate(265,542) scale(0.5)">
<rect x="18" y="18" width="38" height="38" fill="#c8c8c8"></rect>
<rect x="18" y="64" width="38" height="38" fill="#c8c8c8"></rect>
<rect x="64.5" y="18.5" width="37" height="37" fill="none" stroke="#c8c8c8" stroke-width="7"></rect>
<rect x="64.5" y="64.5" width="37" height="37" fill="none" stroke="#c8c8c8" stroke-width="7"></rect>
<path d="M26 37 L33 45 L49 27" fill="none" stroke="#eeeeee" stroke-width="5" stroke-linecap="square" stroke-linejoin="miter"></path>
<path d="M26 83 L33 91 L49 73" fill="none" stroke="#eeeeee" stroke-width="5" stroke-linecap="square" stroke-linejoin="miter"></path>
</g>
<text x="295" y="622" text-anchor="middle" font-family="Interstate, Overpass, Arial, sans-serif" font-size="11" font-weight="600" fill="#bdbdbd" letter-spacing="0.5">PROVING GROUND</text>
<g transform="translate(435,542) scale(0.5)">
<rect x="12" y="44" width="28" height="28" fill="#c8c8c8"></rect>
<rect x="46" y="44" width="28" height="28" fill="#c8c8c8"></rect>
<rect x="80" y="44" width="28" height="28" fill="#c8c8c8"></rect>
<rect x="6" y="76" width="108" height="8" fill="#dcdcdc"></rect>
</g>
<text x="465" y="622" text-anchor="middle" font-family="Interstate, Overpass, Arial, sans-serif" font-size="11" font-weight="600" fill="#bdbdbd" letter-spacing="0.5">ASSEMBLY LINE</text>
<g transform="translate(605,542) scale(0.5)">
<rect x="16" y="78" width="26" height="26" fill="#e21833"></rect>
<rect x="48" y="78" width="26" height="26" fill="#000000"></rect>
<rect x="48" y="46" width="26" height="26" fill="#000000"></rect>
<rect x="80" y="78" width="26" height="26" fill="#ffd200"></rect>
<rect x="80" y="46" width="26" height="26" fill="#ffd200"></rect>
<rect x="80" y="14" width="26" height="26" fill="#ffd200"></rect>
</g>
<text x="635" y="622" text-anchor="middle" font-family="Interstate, Overpass, Arial, sans-serif" font-size="11" font-weight="800" fill="#111111" letter-spacing="0.5">SCALE-UP</text>
  <text class="foot" x="40" y="668">Build as ONE component; the active stage is set per page. On narrow screens, keep the active stage&#39;s name and let the others collapse to glyphs.</text>
</svg>