<?xml version="1.0"?>
<svg id="Layer_1" data-name="Layer 1" xmlns="http://www.w3.org/2000/svg" viewBox="0 0 545.55 89.39">
  <path d="M45.06,89.24c24.65,0,44.82-19.98,44.82-44.62S68.89.17,45.06.19C20.42.21.11,19.97.11,44.62s20.31,44.62,44.96,44.62Z" fill="#fff"></path>
  <path d="M65.95,16.36c-5.77.88-13.51,1.39-21.61,1.39.1-8.87.25-15.27.43-17.21,8.21,1.4,15.67,7.32,21.18,15.82" fill="#fff"></path>
  <path d="M75.58,48.22c-8.35,1.27-19.55,2.01-31.28,2-.01-12.08.05-23.74.15-32.81,8.1,0,15.83-.5,21.59-1.38,5.64,8.71,9.25,20.13,9.53,32.19" fill="#e03a3e" stroke="#e03a3e" stroke-width=".3"></path>
  <path d="M74.85,48.16c-2.32-.37-4.27-4.23-3.25-8.23-3.27,2.26-6.95-2.38-6.41-6.68.29-2.28,1.78-4.3,4.38-3.36-1.06-3.63-2.38-7.07-3.93-10.23-2.31.29-4.84.54-7.52.72,2.38,3.6.05,6.95-3.28,6.42-2.41-.39-4.66-2.92-4.04-5.93-1.96,1.36-5.99.82-6.35-3.48,7.4-.04,13.9-.29,21.61-1.37h0c6.23,10.28,8.91,19.29,9.55,32.14-.23,0-.54.03-.76,0" fill="#fff"></path>
  <path d="M21.29,78.26c-4.6-.77-7.66-1.76-8.7-2.83-1.14-1.28-2.63-3.01-3.68-4.36-2.56-3.74-2.61-3.81-3.73-5.97-1.96-4.15-2-4.23-2.77-6.53-1.29-4.48-1.32-4.56-1.71-7-.25-2.11-.48-4.95-.57-7.08l.04-1.94c-.08,1.89,4.49,3.69,12.4,5.02-.02.63-.03,1.26-.03,1.89.02,11.65,3.34,21.73,8.74,28.79" fill="#fff"></path>
  <path d="M44.91,89.24c-.21,0-.49,0-.69,0-.41,0-.82-.03-1.23-.04-2.69-.15-4.46-.41-6.77-.83-5.81-1.33-10.97-4.92-14.97-10.18,3.95.66,9.02,1.16,14.92,1.42,2.79.12,5.59.18,8.36.18.1,5.98.24,9.45.38,9.46" fill="#fff"></path>
  <path d="M44.53,79.78c-2.76,0-5.57-.06-8.36-.18-5.89-.26-10.96-.76-14.91-1.42-5.36-7.05-8.65-17.1-8.66-28.7,0-.51,0-1.01.02-1.52,5.37.9,12.28,1.58,20.31,1.93,3.8.16,7.62.25,11.38.25,0,.51,0,1.01,0,1.52.02,11.6.1,21.43.22,28.12" fill="#e03a3e" stroke="#e03a3e" stroke-width=".3"></path>
  <path d="M44.46,80.4c-.38,1.55-2.55,3.02-5.62,1.77,1.43,1.89.19,3.53-2.33,3.07-1.96-.36-4.29-1.93-4.47-3.51-2.42-.18-4.64-.42-6.61-.69,1.87,2.17,3.96,3.95,6.21,5.27.27-.11.69-.08,2.02.38,1.71.6,3.31,1.47,5.01,2.08,0,0,0,0,0,0-1.34-.21-1.51-.23-2.46-.41-3.22-.93-9.21-2.65-14.97-10.18h0s0,0,0,0c0,0,0,0,0,0,6.93,1.07,13.67,1.53,23.28,1.59-.02.19-.03.44-.07.62" fill="#e03a3e" stroke="#e03a3e" stroke-width=".3"></path>
  <path d="M21.26,78.18h0c-6.17-8.83-8.6-17.3-8.66-30.18,3.49,1.15,4.45,6.24,3.55,9.11,3.32-1.28,7.49,4.45,6.03,8.29-.67,1.77-2.42,2.26-4.25,1.19.99,3.35,2.27,6.41,3.8,9.12,2.34.32,4.98.6,7.86.82-2.32-2.85-.46-5.18,2.63-5.03,2.65.14,6.16,2.34,5.41,5.35,2.39-1.08,6.44-.19,6.91,2.93-2.91-.02-7.3-.06-12.92-.44-3.47-.24-6.89-.9-10.36-1.16" fill="#fff"></path>
  <path d="M21.25,78.18c-5.1-.92-7.31-1.64-8.75-2.84-1.03-1.17-2.4-2.74-3.37-3.97.18.22.29.37.77.92-.47-.58-2.8-3.57-2.97-4.88,1.27-.2,5.36,6.17,5.4,6.24,1.24.46,2.85.9,4.8,1.29-1.83-2.76-3.37-5.86-4.55-9.24-2.78,1.41-6.33-5.95-5.21-9.05.23-.63.97-1.95,2.85-.53-1.42-3.27-1.05-8.12,2.38-8.12.08,10.84,1.58,20.13,8.64,30.17" fill="#e03a3e" stroke="#e03a3e" stroke-width=".3"></path>
  <path d="M66.67,83.62c-3.04,1.56-3.67,1.89-6.92,3.11-.96.31-2.24.71-3.2.99,6.25-1.69,11.81-5.26,16.2-10.24-.93,2.07-1.57,3.25-4.84,5.43-.41.25-.82.48-1.23.72" stroke="#000" stroke-width=".1"></path>
  <path d="M67.9,82.91c2.69-1.86,3.83-2.96,4.84-5.43,6.43-7.29,10.36-17.57,10.34-29.32,0-.49,0-.99-.02-1.48,2.03-.53,3.66-1.12,4.81-1.75.02.49.03.98.03,1.48.02,15.76-7.96,29.22-20,36.49" fill="#ffd520" stroke="#ffd520" stroke-width=".3"></path>
  <path d="M54.47,71.35q-2.98-2.98-10.13-9.76c-.02-3.13-.03-6.45-.03-9.93,0-.49,0-.99,0-1.48,3.88,0,7.7-.08,11.38-.23,0,.49,0,.99,0,1.48.01,7.5-.43,14.26-1.22,19.92" stroke="#000" stroke-width=".1"></path>
  <path d="M46.82,89.2h-.28c-.62.03-.9.04-1.16.04h-.47c-.26,0-.48-11.06-.57-27.64,6.69,6.33,7.39,6.99,10.13,9.76-1.52,10.88-4.32,17.7-7.65,17.85" fill="#ffd520" stroke="#ffd520" stroke-width=".3"></path>
  <path d="M48.94,89.06c-.36.03-.83.07-1.18.09-.28.02-.65.04-.93.05,3.33-.14,6.13-6.95,7.65-17.82,3.23,3.39,4.65,5.05,6.22,7.59-3.04,6-7.13,9.67-11.75,10.09" stroke="#000" stroke-width=".1"></path>
  <path d="M60.69,78.98c-1.54-2.42-2.47-3.7-6.22-7.59.79-5.67,1.23-12.44,1.22-19.95,0-.49,0-.99,0-1.48,3.68-.15,7.22-.38,10.53-.67,0,.49.01.99.01,1.48.02,11.52-2.09,21.38-5.55,28.22" fill="#ffd520" stroke="#ffd520" stroke-width=".3"></path>
  <path d="M61.59,84.46c.56-1.77.51-2.82-.89-5.51,3.45-6.83,5.55-16.69,5.54-28.19,0-.49,0-.99-.01-1.48,1.24-.11,2.46-.23,3.63-.36,1.64,1.94,3.69,4.35,5.48,6.9-1.25,12.79-6.42,23.09-13.74,28.64" stroke="#000" stroke-width=".1"></path>
  <path d="M51.8,88.72c-.33.05-.78.11-1.11.16q-1.05.13-1.59.18l-.17.02c4.62-.41,8.72-4.09,11.76-10.11,1.21,2.41,1.6,3.51.89,5.51-2.95,2.24-6.25,3.71-9.78,4.26" fill="#ffd520" stroke="#ffd520" stroke-width=".3"></path>
  <path d="M56.55,87.72l-1.08.27q-1.8.4-2.77.58l-.87.14c8.72-1.36,16.03-8.3,20.17-18.61,1.14,3.05,1.5,4.48.74,7.39-4.39,4.97-9.94,8.54-16.19,10.23" fill="#ffd520" stroke="#ffd520" stroke-width=".3"></path>
  <path d="M55.47,87.99q-1.8.4-2.77.58l-.87.14c3.51-.55,6.8-2,9.74-4.22-1.03,1.53-1.73,2.2-5.02,3.22l-1.08.27" stroke="#000" stroke-width=".1"></path>
  <path d="M72.74,77.49c.61-2.56.59-3.98-.74-7.39,2.36-5.87,3.69-12.82,3.68-20.46,0-.49,0-.99-.02-1.48,2.82-.43,5.32-.93,7.4-1.48.01.49.02.98.02,1.48.02,11.75-3.92,22.04-10.35,29.32" stroke="#000" stroke-width=".1"></path>
  <path d="M66.67,83.62c.4-.22.8-.45,1.19-.69l-.45.27-.74.42" fill="#ffd520" stroke="#ffd520" stroke-width=".3"></path>
  <path d="M71.95,70.1c-1.58-3.22-2.65-4.93-6.26-9.37.36-3.15.55-6.48.55-9.97,0-.49,0-.99-.01-1.48,3.39-.3,6.55-.67,9.38-1.1.01.49.02.98.02,1.48.01,7.63-1.32,14.58-3.67,20.45" fill="#ffd520" stroke="#ffd520" stroke-width=".3"></path>
  <path d="M65.68,60.76c-2.58-2.97-3.88-4.46-10-10.81,3.46-.17,6.19-.31,10.53-.7,0,.5.01,1,.01,1.5,0,3.5-.19,6.85-.55,10.01" stroke="#000" stroke-width=".1"></path>
  <path d="M18.06,14.57c1.56-3.5,2.71-5.25,6.02-8.08C30.26,2.78,37.34.52,44.88.2c-10.38.94-19.81,6.33-26.82,14.37" fill="#ffd520" stroke="#ffd520" stroke-width=".3"></path>
  <path d="M5.71,46.49c-1.82-.53-3.22-1.1-4.16-1.69C2.05,28.66,11.02,14.33,24.08,6.49c-3.09,2.74-4.46,4.38-6.02,8.08-7.33,8.42-12.01,19.75-12.35,31.92" stroke="#000" stroke-width=".1"></path>
  <path d="M44.31,50.18c-3.76,0-7.58-.08-11.38-.25-.11,0-.23,0-.34-.02.06-7.97.7-15.73,1.79-22.69,3.24,4.06,4.94,6.03,9.95,11.26-.01,3.8-.01,7.72,0,11.69" fill="#ffd520" stroke="#ffd520" stroke-width=".3"></path>
  <path d="M34.38,27.19c-3.03-4.22-4.33-6.41-5.58-10.3C32.96,8.11,38.62,1.88,44.88.2c-4.45,2.51-8.35,13.13-10.5,27" fill="#ffd520" stroke="#ffd520" stroke-width=".3"></path>
  <path d="M32.59,49.91c-3.9-.18-7.53-.43-10.84-.75.19-11.98,2.85-23.42,7.05-32.28,1.28,3.74,2.32,5.86,5.58,10.3-1.08,6.96-1.73,14.74-1.79,22.72" stroke="#000" stroke-width=".1"></path>
  <path d="M21.74,49.17c-1.24-.12-2.44-.25-3.59-.39-1.5-2.29-3.36-5.14-4.9-8.45,1.91-13.02,7.83-24.67,15.88-32.08-1.07,2.96-1.29,4.71-.35,8.67-4.19,8.85-6.85,20.28-7.03,32.24" fill="#ffd520" stroke="#ffd520" stroke-width=".3"></path>
  <path d="M28.78,16.92c-.8-3.64-.87-5.5.35-8.67C33.79,3.96,39.16,1.09,44.88.2c-6.26,1.68-11.94,7.93-16.1,16.73" stroke="#000" stroke-width=".1"></path>
  <path d="M17.43,25.22c-.65-4.34-.65-6.6.64-10.66C25.08,6.53,34.51,1.14,44.88.2h0c-2.47.41-2.92.49-4.76,1.22-9.57,3.41-17.77,12.32-22.69,23.81" stroke="#000" stroke-width=".1"></path>
  <path d="M29.16,8.19c1.5-2.6,2.49-3.86,6.27-5.84,3.03-1.12,6.19-1.85,9.45-2.15-5.71.89-11.07,3.73-15.72,7.99" fill="#ffd520" stroke="#ffd520" stroke-width=".3"></path>
  <path d="M12.54,47.99c-2.68-.45-4.97-.95-6.83-1.5.33-12.18,5.02-23.51,12.36-31.93-1.14,3.77-1.41,5.95-.64,10.66-2.94,6.87-4.71,14.67-4.89,22.77" fill="#ffd520" stroke="#ffd520" stroke-width=".3"></path>
  <path d="M24.13,6.46c3.27-2.36,5.12-3.48,10.22-5.04,3.38-.8,6.91-1.23,10.53-1.23h0c-7.52.32-14.59,2.57-20.75,6.26" stroke="#000" stroke-width=".1"></path>
  <path d="M1.55,44.81c-.94-.59-1.42-1.2-1.4-1.82l.08-1.55C1.51,21.92,15.63,5.88,34.34,1.43c-4.22,1.34-6.58,2.34-10.22,5.04C11.04,14.3,2.05,28.64,1.55,44.81" fill="#ffd520" stroke="#ffd520" stroke-width=".3"></path>
  <path d="M21.74,49.17c-3.39-.33-6.46-.72-9.14-1.17.18-8.09,1.94-15.88,4.87-22.75,1.13,4.51,2.05,6.91,5.23,12.26-.57,3.78-.91,7.69-.97,11.66" stroke="#000" stroke-width=".1"></path>
  <path d="M21.74,49.19c.06-3.99.4-7.92.97-11.72,2.74,4.08,4.42,6.48,9.87,12.44-3.73-.19-6.43-.32-10.84-.73" fill="#ffd520" stroke="#ffd520" stroke-width=".3"></path>
  <path d="M35.42,2.35c2.49-1.01,4.64-1.88,9.45-2.15h0c-3.26.3-6.43,1.03-9.45,2.15" stroke="#000" stroke-width=".1"></path>
  <path d="M88.17,44.78c1.14-.66,1.68-1.33,1.65-1.99.61,18.66-9.89,33.13-22.32,40.35l-.05.03.47-.28c12.06-7.26,20.06-20.74,20.04-36.51,0-.49,0-.99-.03-1.48.08-.04.15-.08.22-.13.02.49.02.98.03,1.48" stroke="#000" stroke-linecap="round" stroke-linejoin="round" stroke-width=".1"></path>
  <path d="M66.11,16h0s0,0,0,0c.01,0,.02,0,.04,0h0s.01,0,.02,0c.43-.07.84-.14,1.23-.21,2.55-.47,8.12-1.69,8.12-3.38,0,0,2.48,2.26,4.14,5.35.2.34.37.68.5,1.04.15.35.25.68.3.98.01.02.02.04.04.06,0,.14,0,.27,0,.38,0,.05,0,.1,0,.14-.09.96-.69.98-1.32.69-.07-.03-.13-.05-.21-.08-2.29-1.03-3.04-3.13-3.49-4-1.16.37-3.09,1.21-4.69,1.52-.19.04-.53.12-.72.15,1.89,3.11,3.69,6.82,4.98,10.42,2.25-2.31,5.77,1.98,5.94,6.11.1,2.43-.99,4.59-3.21,3.81,1.78,3.29,1.21,8.12-2.17,9.18-.56-10.83-2.4-20.44-9.53-32.14h0s0,0,0,0" fill="#e03a3e" stroke="#e03a3e" stroke-width=".3"></path>
  <path d="M66.51,7.7s-.02-.01-.03-.02c0,0,.02,0,.03,0-.01-.03-.02-.07-.03-.1.03-.04.08-.1.11-.14.06,0,.1-.01.15-.02h0s.32-1.37,5.45,2.17C63.47,2.79,54.63.86,49.39.35c.56.16.97.33,1.29.48.27.13.47.26.61.38.01,0,.02,0,.02,0,.64.07,1.21.18,1.73.31h0c.19.06.37.13.56.2.02,0,.05.02.07.03.16.06.33.13.49.19.04.02.08.03.12.05.15.06.3.13.46.19.05.02.09.04.14.06.19.09.39.18.59.27h0c1.58.78,2.85,1.64,2.86,2.3-.23.14-.31.19-1,0,2.64,1.88,6.42,5.43,8.66,8.04,1.54-.29,3.83-.62,4.89-.98-.08.08-3.9-2.79-4.36-4.18Z" fill="#e03a3e" stroke="#e03a3e" stroke-width=".3"></path>
  <path d="M75.49,12.44c-1.1-1.03-2.21-1.98-3.32-2.85-2.08-1.43-3.36-2.06-4.16-2.3h.01s-2.56-.83-1.11,1.12h0c1.11,1.46,3.88,3.53,3.95,3.47-1.06.35-3.35.68-4.89.98-2.24-2.61-6.02-6.15-8.66-8.04.69.19.76.14,1,0,0-.66-1.28-1.52-2.86-2.29h0c-.2-.1-.39-.19-.59-.28-.05-.02-.09-.04-.14-.06-.15-.07-.31-.13-.46-.19-.04-.02-.08-.03-.12-.05-.16-.07-.33-.13-.49-.19-.02,0-.05-.02-.07-.03-.19-.07-.38-.14-.56-.2h0c-.51-.13-1.09-.24-1.73-.31,0,0,0,0-.02,0,.04.03.06.06.09.09l-.17-.08s.06,0,.08,0c-.14-.12-.33-.25-.61-.38-.31-.15-.73-.32-1.29-.48-1.27-.12-2.33-.17-3.13-.17-.6-.02-1.08-.03-1.18,0,0,0,0,0-.01.01-.18,0-.29.01-.29.01l.2.06c-.11-.02-.23-.04-.34-.05.28.05.56.1.83.15.7.23,2.14.62,3.24.9,6.7,2.36,12.74,7.64,17.4,14.73.07-.01.14-.02.21-.03,4.15-.7,6.45-1.47,8.09-2.23,0,0,0,0,.01,0,1.19-.66,1.05-1.3,1.05-1.3h.01Z" fill="#fff"></path>
  <path d="M66.06,16.02h0C58.79,5.3,52.1,2.1,46.02.53c.16.05.31.1.47.15-.28-.08-.57-.15-.83-.22-.07-.02-.14-.05-.2-.07.18.04.37.09.56.14-.21-.06-.43-.12-.65-.17-.08-.03-.14-.05-.18-.06.02.01.04.02.06.04-.14-.03-.28-.06-.43-.09h0c1.3,1.44,3.13,2.05,3.57,2.18-.12.54-.03,1.62,1.85,2.98.29.21.57.38.85.51,2.9,1.52,3.54.34,3.68-.14.02-.01.03-.02.05-.04.89.65,2.61,2.04,4.51,4.2,1.1,1.32,2.13,2.47,2.91,3.62-1.79.23-4.17.44-6.52.61-.13-2.85-2.19-4.27-3.48-4.75-2.83-1.05-3.76,2.28-2.53,4.61-2.24-1.21-4.88-.13-5.26,3.4,8.84-.05,14.9-.44,21.61-1.4h0,0" fill="#e03a3e" stroke="#e03a3e" stroke-width=".3"></path>
  <path d="M44.32,38.49c-4.39-4.6-6.74-7.19-9.95-11.26C36.53,13.35,40.42,2.71,44.88.2h0c-.29,3.27-.51,19.24-.56,38.29" stroke="#000" stroke-width=".1"></path>
  <g>
    <path d="M141.92,88.31l-20.36-42.61h-.16l-2.18,35.95c-.24,4.07,2.82,4.95,6.41,5.11v1.55h-16.65v-1.55c5.83,0,6.55-1.28,6.95-8.55l1.92-31.08c.32-5.27.16-6.71-4.79-7.03v-1.43h12.09l19.24,40.26,19.16-40.26h11.74v1.43c-3.91.32-5.43.4-5.27,3.12l2.55,36.19c.48,7.35,1.12,7.35,6.95,7.35v1.55h-20.52v-1.55c3.75,0,7.43-1.04,7.11-5.27l-2.32-35.79h-.16l-19.88,42.61h-1.84Z" fill="#fff"></path>
    <path d="M211.59,62.72h-13.81l6.79-18.48,7.03,18.48ZM212.94,66.27l5.35,14.51c.32.8.88,1.99.88,3.27,0,2.23-1.68,2.71-6.23,2.71h-2.08v1.55h21.96v-1.55c-3.99,0-5.67-.8-7.27-5.02l-16.69-44.21h-6.95l.72,1.75-14.53,39.59c-2.55,6.94-3.43,7.81-8.62,7.89v1.55h18.45v-1.55h-1.28c-4.39,0-6.47-.8-6.47-2.95,0-1.12,1.04-3.51,1.6-5.02l4.63-12.52h16.53Z" fill="#fff"></path>
    <path d="M247.13,39.68c1.44-.16,2.49-.16,4.01-.16,12.36,0,15.73,5.75,15.73,13.17,0,9.58-5.86,13.33-14.77,13.33-1.85,0-3.05.08-4.98-.16v-26.18ZM247.13,67.4c1.28.08,2.33.16,4.09.16,2.17,0,3.45-.08,5.46-.16,1.93,1.27,4.73,3.57,8.27,7.07l5.25,5.24c7.07,7.1,10.66,10.12,24.64,9.48v-1.43c-6.15-.4-11.02-3.34-15.73-8.03l-6.3-6.28c-3.72-3.74-6.1-5.96-9.07-8.31,6.53-1.92,10.57-6.94,10.57-12.93,0-8.14-6.57-14.24-21.41-14.24-5.22,0-6.81.08-10.06.25-3.26.15-8.13.47-10.04.47v1.55h1.76c4.63,0,5.99,1.44,5.99,6.39v33.56c0,5.32-1.68,6.58-6.39,6.58h-1.36v1.55h22.59v-1.55h-1.85c-4.49,0-6.42-1.19-6.42-5.95v-13.41Z" fill="#fff"></path>
    <path d="M322.18,45.97c2.55-4.38,1.04-5.74-4.07-5.74v-1.55h18v1.55c-5.41.4-7.72,2.55-9.95,6.29l-13.23,22.39v11.95c0,4.22,1.51,5.9,6.38,5.9h1.03v1.55h-21.97v-1.55h1.53c4.99,0,6.44-1.83,6.44-5.74v-11.23l-14.28-22.15c-3.9-6.13-5.73-7.25-10.9-7.41v-1.55h21.24v1.55c-6.28,0-6.67,1.51-4.27,5.18l12.82,19.68,11.23-19.12Z" fill="#fff"></path>
    <path d="M371.13,88.31h-35.65v-1.55h2.64c3.67,0,5.03-1.2,5.03-5.26v-35.29c0-4.23-1.28-5.98-6.31-5.98h-1.12v-1.55h23.51v1.55h-2.95c-5.19,0-6.55.56-6.55,5.5v36.77c0,2.15.88,2.95,3.19,2.95h11.74c4.71,0,6.15-1.83,11.18-8.82h1.44l-6.15,11.67Z" fill="#fff"></path>
    <path d="M407.54,62.72h-13.82l6.79-18.48,7.03,18.48ZM408.89,66.27l5.35,14.51c.32.8.88,1.99.88,3.27,0,2.23-1.68,2.71-6.23,2.71h-2.08v1.55h21.96v-1.55c-3.99,0-5.67-.8-7.27-5.02l-16.69-44.21h-6.95l.72,1.75-14.53,39.59c-2.55,6.94-3.43,7.81-8.62,7.89v1.55h18.45v-1.55h-1.28c-4.39,0-6.47-.8-6.47-2.95,0-1.12,1.04-3.51,1.6-5.02l4.63-12.52h16.53Z" fill="#fff"></path>
    <path d="M480.56,88.89l-41.29-43.25v34.18c0,5.74,1.27,6.93,8.05,6.93v1.55h-18.5v-1.55h.32c4.95,0,6.55-1.67,6.55-5.34v-39.2c-1.83-1.28-3.91-1.91-6.71-2v-1.55h12.52l37.55,39.2v-31.75c0-4.87-1.44-5.74-7.81-5.9v-1.55h18.66v1.55c-5.99,0-7.27,1.04-7.27,4.15v44.51h-2.07Z" fill="#fff"></path>
    <path d="M504.77,39.84c.96-.08,3.12-.32,6.4-.32,11.19,0,16.87,2.79,20.55,6.45,4.72,4.7,6.4,11.23,6.4,17.13,0,8.21-3.68,14.34-6.63,17.21-4.96,4.94-9.44,6.45-20.15,6.45-6.32,0-6.56-1.12-6.56-4.38v-42.54ZM498.18,80.95c0,4.62-2,5.82-6.31,5.82h-1.36v1.55h25.52c20.23,0,29.51-14.45,29.51-26.48,0-13.14-9.28-23.86-30.39-23.86-4.16,0-9.03.08-13.41.25-4.37.15-8.28.31-11.23.47v1.42h1.59c4.71,0,6.07,1.28,6.07,6.47v34.37Z" fill="#fff"></path>
    <path d="M142.21,5.49v.72c-2.58.04-3.51,1.08-3.51,3.54v10.39c0,4.77-3.04,9.89-11.39,9.89-7.35,0-11.13-4.2-11.13-9.7v-11.24c0-2.46-.69-2.85-3.31-2.89v-.72h9.9v.72h-.35c-2.12,0-3.04.58-3.04,2.81v10.7c0,5.19,3.04,8.31,8.77,8.31,4.35,0,8.77-1.81,8.77-8.35v-8.97c0-3.69-.58-4.35-3.77-4.5v-.72h9.05Z" fill="#fff"></path>
    <path d="M179.79,29.74l-19.9-20.91v16.55c0,2.78.61,3.36,3.88,3.36v.72h-8.91v-.72h.15c2.39,0,3.16-.81,3.16-2.59V7.17c-.89-.62-1.89-.93-3.24-.96v-.72h6.03l18.1,18.93v-15.36c0-2.35-.69-2.78-3.77-2.86v-.72h8.99v.72c-2.89,0-3.51.5-3.51,2.01v21.53h-.99Z" fill="#fff"></path>
    <path d="M209.15,29.45h-9.37v-.72c2.39-.12,2.89-.73,2.89-3.32V8.98c0-2.08-.73-2.66-2.89-2.78v-.72h9.37v.72c-2.43,0-3.27.54-3.27,3.13v16.36c0,2.28.62,3.05,3.27,3.05v.72Z" fill="#fff"></path>
    <path d="M234.97,30.02l-8.36-20.82c-.96-2.42-1.43-3-3.78-3v-.72h10.6v.72c-3.54.08-4.39.89-3.66,2.66l6.93,17.24,6.08-15.89c.42-1.08.65-1.85.65-2.39,0-1.15-.96-1.62-3.58-1.62v-.72h8.93v.72c-2,0-3.04.92-3.97,3.31l-7.94,20.51h-1.92Z" fill="#fff"></path>
    <path d="M279.02,20.78h-.72c-.31-2.75-1.04-3.06-2.63-3.06h-6.54v8.24c0,1.78.66,2.13,2.09,2.13h5.96c2.68,0,3.49-1.05,4.46-4.38h.69l-.62,5.74h-20.48v-.72h1.08c3.08,0,3.62-.85,3.62-3.17V9.29c0-2.16-.5-3.09-3.08-3.09h-.85v-.72h18.52l.31,5.34h-.7c-.5-3.29-1.45-3.98-2.84-3.98h-8.16v9.51h6.92c1.39,0,2.05-.66,2.24-2.9h.72v7.32Z" fill="#fff"></path>
    <path d="M304.76,5.92c.69-.08,1.19-.08,1.92-.08,5.92,0,7.54,2.78,7.54,6.36,0,4.63-2.81,6.44-7.07,6.44-.88,0-1.46.04-2.38-.08V5.92ZM304.76,19.29c.62.04,1.12.07,1.96.07,1.04,0,1.65-.04,2.61-.07.92.62,2.27,1.74,3.96,3.44l2.55,2.56c3.44,3.42,5.17,4.89,11.91,4.58v-.7c-2.97-.19-5.32-1.62-7.59-3.9l-3.04-3.05c-1.82-1.81-2.98-2.9-4.4-4,3.16-.93,5.13-3.36,5.13-6.25,0-3.93-3.21-6.85-10.32-6.85-2.5,0-3.27.04-4.85.11-1.58.09-3.93.25-4.86.25v.72h.85c2.23,0,2.89.69,2.89,3.08v16.24c0,2.59-.81,3.21-3.08,3.21h-.66v.72h10.9v-.72h-.88c-2.15,0-3.08-.58-3.08-2.9v-6.54Z" fill="#fff"></path>
    <path d="M338.18,23.54c.8,3.42,3.48,5.41,6.47,5.41,2.57,0,5.3-1.5,5.3-4.53,0-5.53-12.3-7.22-12.3-13.94,0-3.19,2.9-5.57,6.81-5.57,3.22,0,3.88.96,5.22.96.31,0,.46-.08.69-.39h.61l.65,4.89h-.65c-1.07-2.76-3.53-4.53-6.17-4.53s-4.3,1.46-4.3,3.61c0,5.45,12.31,6.91,12.31,13.98,0,3.76-3.32,6.59-7.81,6.59-2.11,0-4.8-1.06-5.33-1.06-.34,0-.61.2-.76.49h-.65l-.8-5.91h.73Z" fill="#fff"></path>
    <path d="M379.86,29.45h-9.37v-.72c2.39-.12,2.89-.73,2.89-3.32V8.98c0-2.08-.73-2.66-2.89-2.78v-.72h9.37v.72c-2.43,0-3.28.54-3.28,3.13v16.36c0,2.28.62,3.05,3.28,3.05v.72Z" fill="#fff"></path>
    <path d="M407.23,25.92c0,2.08.69,2.82,3.04,2.82h1.42v.72h-12.14v-.72h1.42c2.35,0,3.04-.73,3.04-2.82V6.84h-6.71c-1.54,0-2.23.89-2.81,4.29h-.69l.62-6.22h.73c.04.23.19.38.42.46.23.08.5.12.77.12h18.54c.54,0,1.12-.12,1.2-.57h.73l.62,6.22h-.69c-.58-3.4-1.27-4.29-2.81-4.29h-6.7v19.07Z" fill="#fff"></path>
    <path d="M449.34,8.98c1.24-2.12.5-2.78-1.98-2.78v-.72h8.72v.72c-2.62.19-3.73,1.23-4.81,3.05l-6.43,10.84v5.79c0,2.05.74,2.86,3.11,2.86h.5v.72h-10.58v-.72h.72c2.36,0,3.04-.89,3.04-2.78v-5.44l-6.8-10.73c-1.89-2.97-2.78-3.51-5.29-3.59v-.72h10.23v.72c-2.97,0-3.16.73-2.01,2.51l6.12,9.53,5.47-9.26Z" fill="#fff"></path>
    <path d="M509.77,18.07c0,5.48-3.01,11.03-9.29,11.03s-11.11-5.09-11.11-12.3c0-4.63,2.7-10.95,9.49-10.95,6.37,0,10.91,5.05,10.91,12.23ZM513.4,16.79c0-6.94-6.26-11.88-13.55-11.88-8.22,0-14.13,5.4-14.13,13.07,0,7.21,6.37,12.03,13.93,12.03s13.74-5.44,13.74-13.23Z" fill="#fff"></path>
    <path d="M539.44,20.23h-.64c-.08-2.24-.89-2.94-2.74-2.94h-7.14v8.47c0,2.16.46,2.98,3.36,2.98v.72h-9.37v-.72c2.39-.15,2.81-.66,2.81-3.79v-15.12c0-2.47-.19-3.59-2.89-3.63v-.72h17.26v4.53h-.64c-.04-2.24-.81-3.17-3.2-3.17h-7.32v9.09h7.64c1.43,0,2.12-.81,2.24-2.47h.64v6.77Z" fill="#fff"></path>
    <rect x="489.67" y="38.62" width=".91" height="1.49" fill="#fff"></rect>
  </g>
</svg>