<?xml version="1.0"?>
<svg id="Layer_1" data-name="Layer 1" xmlns="http://www.w3.org/2000/svg" viewBox="0 0 1267.3 494.8">
  <path d="M704.8,303h-72.3V48h72.3v255h0Z" fill="#fff"></path>
  <path d="M902.7,302.9h-66.1v-13.5c-12.8,10.2-25.2,17.5-45.3,17.5-35.8,0-63.5-28-63.5-99.1s24.5-100.2,66.1-100.2,32.1,8.7,42.7,16.8V48.3l66.1-11.8v266.4h0ZM836.6,243.9v-73.2c-6.6-5.5-13.1-9.1-23.4-9.1s-20.8,8.4-20.8,44.1,7.3,47.4,21.2,47.4,16.4-3.6,23-9.1h0v-.1Z" fill="#fff"></path>
  <path d="M1090.7,213.4c0,5.5,0,9.5-.4,12.8h-112.4c2.2,21.1,14.6,30.6,32.5,30.6s30.7-3.6,49.6-13.5l25.2,41.9c-23.7,13.8-48.2,21.9-78.1,21.9-57.7,0-89.4-40.8-89.4-99.4s37.2-99.8,87.6-99.8,85.4,34.6,85.4,105.6h0v-.1ZM1032.6,185.3c-3.3-19.3-9.9-29.1-29.2-29.1s-23.4,10.2-25.5,29.1h54.8-.1Z" fill="#fff"></path>
  <path d="M1267.3,303h-62.1v-12.8c-12.4,9.5-29.2,16.8-46.7,16.8-37.2,0-62.1-23-62.1-65.9s28.5-62.3,69-62.3,29.2,3.3,39.8,8v-9.5c0-16.8-9.1-22.6-27-22.6s-34.7,3.6-53.3,13.8l-17.2-43.3c23.4-11.3,49.3-17.5,82.5-17.5,53.7,0,77,26.6,77,71v124.2h0l.1.1ZM1205.3,251.2v-26.2c-7.3-3.3-15.7-5.5-28.1-5.5s-20.4,7.3-20.4,20.4,6.2,20.8,20.4,20.8,21.9-4.4,28.1-9.5h0Z" fill="#fff"></path>
  <path d="M733.6,344.6h-65.9v17.7h40v29.9h-40v49.9h-35.2v-127.5h101.1v30h0Z" fill="#fff"></path>
  <path d="M811.5,442h-31v-6.4c-6.2,4.7-14.6,8.4-23.4,8.4-18.6,0-31-11.5-31-33s14.2-31.1,34.5-31.1,14.6,1.6,19.9,4v-4.7c0-8.4-4.6-11.3-13.5-11.3s-17.3,1.8-26.7,6.9l-8.6-21.7c11.7-5.6,24.6-8.7,41.2-8.7,26.8,0,38.5,13.3,38.5,35.5v62.1h.1ZM780.5,416.1v-13.1c-3.7-1.6-7.8-2.7-14-2.7s-10.2,3.6-10.2,10.2,3.1,10.4,10.2,10.4,11-2.2,14-4.7h0v-.1Z" fill="#fff"></path>
  <path d="M906.8,421.2c-11.1,16.4-21.5,22.8-38.5,22.8-28.1,0-44.9-17.9-44.9-50.1s15-49.5,45.6-49.5,28.5,8.4,36.9,21.9l-22.6,17.1c-4.6-8.4-7.7-12.4-14.8-12.4s-12.6,8.4-12.6,23.5,4.6,23,13.5,23,10.6-3.5,16.6-12.4l20.8,16.2h0v-.1Z" fill="#fff"></path>
  <path d="M981.1,411l-4.2,27.9c-6.4,3.1-14.4,5.1-23.7,5.1-17.3,0-25.4-8.7-25.4-30.4v-41.5h-14.6v-25.7h14.6v-26.2l31.9-5.7v31.9h20.8v25.7h-20.8v34.6c0,7.3,2.7,9.5,8.2,9.5s8-1.6,13.1-5.1h0l.1-.1Z" fill="#fff"></path>
  <path d="M1079.7,394.1c0,33-19.2,49.9-45.6,49.9s-45.5-16.9-45.5-49.9,19-49.7,45.5-49.7,45.6,16.4,45.6,49.7ZM1047,394.1c0-16.2-4.4-23.1-13-23.1s-13,6.9-13,23.1,4.4,23.3,13,23.3,13-7.5,13-23.3Z" fill="#fff"></path>
  <path d="M1161.1,348.4l-7.7,34.1c-4.2-4.5-8.9-8-15.3-8s-13,3.8-13,15.5v52.1h-32.8v-95.6h32.8v6.9c5.7-5.5,12.1-8.9,20.4-8.9s11.7,1.6,15.5,4h0l.1-.1Z" fill="#fff"></path>
  <path d="M1266.6,346.4l-46.4,129.3h-31.4l12.1-29.7-36.5-99.6h34.9l9.1,34c2.2,8,6.2,25,7.3,34.1,1.3-9.1,5.3-26,7.5-34.4l8.9-33.7h34.5Z" fill="#fff"></path>
  <polygon points="592.8 494.8 0 494.8 0 0 592.9 0 592.9 123.1 555.3 138.6 555.3 424.2 592.8 443.8 592.8 494.8" fill="#fff"></polygon>
  <polygon points="329.3 412.4 329.3 127.9 283.9 71.6 283.9 431.7 329.3 412.4" fill="#e11e34"></polygon>
  <polygon points="577 48.3 284.4 48.3 341.2 119 547.7 82.4 577 48.3" fill="#231f20"></polygon>
  <polygon points="555.3 88.8 555.3 127.7 582.9 116.3 582.9 56.8 555.3 88.8" fill="#231f20"></polygon>
  <polygon points="344.2 128.6 344.2 414.2 545.2 422.1 545.3 93 344.2 128.6" fill="#fdd10c"></polygon>
  <rect x="10" y="10" width="55.3" height="150.4" fill="#231f20"></rect>
  <rect x="75.3" y="10" width="193.6" height="150.4" fill="#fdd10c"></rect>
  <rect x="10" y="170.4" width="128.4" height="153.3" fill="#e11e34"></rect>
  <rect x="10" y="333.7" width="90.9" height="108.2" fill="#fdd10c"></rect>
  <rect x="110.9" y="333.7" width="83.5" height="108.2" fill="#e11e34"></rect>
  <rect x="148.4" y="170.4" width="120.2" height="153.3" fill="#231f20"></rect>
  <rect x="204.4" y="333.7" width="64.5" height="108.2" fill="#231f20"></rect>
  <rect x="10" y="451.9" width="572.8" height="32.9" fill="#231f20"></rect>
  <rect x="278.9" y="10" width="304" height="28.3" fill="#e11e34"></rect>
  <polygon points="567.4 441.9 548.9 432.2 340.1 424 298.3 441.9 567.4 441.9" fill="#e11e34"></polygon>
</svg>