<?xml version="1.0" encoding="UTF-8"?>
<svg xmlns="http://www.w3.org/2000/svg" xmlns:xlink="http://www.w3.org/1999/xlink" width="1303.33" height="494.82" viewBox="726.90 571.61 1303.33 494.82">
<path fill-rule="nonzero" fill="rgb(88.235474%, 11.372375%, 20.391846%)" fill-opacity="1" d="M 1471.960938 872.121094 L 1400.300781 872.121094 L 1400.300781 619.355469 L 1471.960938 619.355469 Z M 1471.960938 872.121094 "/>
<path fill-rule="nonzero" fill="rgb(88.235474%, 11.372375%, 20.391846%)" fill-opacity="1" d="M 1602.605469 813.628906 L 1602.605469 741.046875 C 1596.09375 735.636719 1589.578125 732.015625 1579.445312 732.015625 C 1566.054688 732.015625 1558.816406 740.324219 1558.816406 775.707031 C 1558.816406 813.617188 1566.054688 822.648438 1579.804688 822.648438 C 1589.210938 822.648438 1596.09375 819.039062 1602.605469 813.628906 M 1668.105469 872.019531 L 1602.605469 872.019531 L 1602.605469 858.65625 C 1589.933594 868.769531 1577.632812 875.984375 1557.726562 875.984375 C 1522.253906 875.984375 1494.753906 848.175781 1494.753906 777.769531 C 1494.753906 707.359375 1519.003906 678.472656 1560.253906 678.472656 C 1579.4375 678.472656 1592.097656 687.136719 1602.597656 695.078125 L 1602.597656 619.632812 L 1668.097656 607.964844 L 1668.097656 872.019531 Z M 1668.105469 872.019531 "/>
<path fill-rule="nonzero" fill="rgb(88.235474%, 11.372375%, 20.391846%)" fill-opacity="1" d="M 1796.949219 755.492188 C 1793.6875 736.359375 1787.171875 726.605469 1768 726.605469 C 1753.160156 726.605469 1744.839844 736.714844 1742.667969 755.492188 L 1796.957031 755.492188 Z M 1854.488281 783.292969 C 1854.488281 788.703125 1854.488281 792.679688 1854.121094 795.933594 L 1742.648438 795.933594 C 1744.820312 816.878906 1757.125 826.257812 1774.859375 826.257812 C 1791.503906 826.257812 1805.257812 822.648438 1824.082031 812.894531 L 1849.054688 854.421875 C 1825.527344 868.144531 1801.28125 876.085938 1771.609375 876.085938 C 1714.425781 876.085938 1682.9375 835.648438 1682.9375 777.511719 C 1682.9375 712.160156 1719.855469 678.570312 1769.792969 678.570312 C 1819.730469 678.570312 1854.476562 712.871094 1854.476562 783.292969 Z M 1854.488281 783.292969 "/>
<path fill-rule="nonzero" fill="rgb(88.235474%, 11.372375%, 20.391846%)" fill-opacity="1" d="M 1968.132812 820.84375 L 1968.132812 794.851562 C 1960.894531 791.597656 1952.566406 789.4375 1940.261719 789.4375 C 1926.871094 789.4375 1920 796.65625 1920 809.664062 C 1920 821.578125 1926.15625 830.242188 1940.261719 830.242188 C 1951.117188 830.242188 1961.976562 825.910156 1968.132812 820.855469 Z M 2029.65625 872.121094 L 1968.132812 872.121094 L 1968.132812 859.480469 C 1955.828125 868.867188 1939.183594 876.085938 1921.804688 876.085938 C 1884.882812 876.085938 1860.277344 853.332031 1860.277344 810.734375 C 1860.277344 768.132812 1888.503906 748.988281 1928.675781 748.988281 C 1946.042969 748.988281 1957.621094 752.242188 1968.121094 756.929688 L 1968.121094 747.542969 C 1968.121094 730.9375 1959.070312 725.15625 1941.34375 725.15625 C 1921.804688 725.15625 1906.960938 728.765625 1888.503906 738.875 L 1871.492188 695.910156 C 1894.648438 684.71875 1920.34375 678.582031 1953.28125 678.582031 C 2006.476562 678.582031 2029.648438 704.941406 2029.648438 748.988281 L 2029.648438 872.121094 Z M 2029.65625 872.121094 "/>
<path fill-rule="nonzero" fill="rgb(88.235474%, 11.372375%, 20.391846%)" fill-opacity="1" d="M 1500.511719 916.355469 L 1435.191406 916.355469 L 1435.191406 933.875 L 1474.816406 933.875 L 1474.816406 963.488281 L 1435.191406 963.488281 L 1435.191406 1012.957031 L 1400.261719 1012.957031 L 1400.261719 886.574219 L 1500.511719 886.574219 L 1500.511719 916.367188 Z M 1500.511719 916.355469 "/>
<path fill-rule="nonzero" fill="rgb(88.235474%, 11.372375%, 20.391846%)" fill-opacity="1" d="M 1547.019531 987.308594 L 1547.019531 974.3125 C 1543.398438 972.6875 1539.234375 971.605469 1533.089844 971.605469 C 1526.398438 971.605469 1522.957031 975.214844 1522.957031 981.71875 C 1522.957031 987.675781 1526.03125 992.007812 1533.089844 992.007812 C 1538.523438 992.007812 1543.945312 989.835938 1547.019531 987.308594 M 1577.78125 1012.945312 L 1547.019531 1012.945312 L 1547.019531 1006.632812 C 1540.863281 1011.332031 1532.542969 1014.9375 1523.859375 1014.9375 C 1505.398438 1014.9375 1493.097656 1003.566406 1493.097656 982.265625 C 1493.097656 960.957031 1507.214844 951.390625 1527.300781 951.390625 C 1535.984375 951.390625 1541.773438 953.019531 1547.027344 955.367188 L 1547.027344 950.679688 C 1547.027344 942.371094 1542.507812 939.484375 1533.632812 939.484375 C 1523.859375 939.484375 1516.445312 941.289062 1507.214844 946.347656 L 1498.707031 924.863281 C 1510.289062 919.261719 1523.136719 916.195312 1539.601562 916.195312 C 1566.203125 916.195312 1577.78125 929.371094 1577.78125 951.402344 L 1577.78125 1012.96875 Z M 1577.78125 1012.945312 "/>
<path fill-rule="nonzero" fill="rgb(88.235474%, 11.372375%, 20.391846%)" fill-opacity="1" d="M 1672.242188 992.367188 C 1661.207031 1008.613281 1650.886719 1014.929688 1634.0625 1014.929688 C 1606.195312 1014.929688 1589.550781 997.234375 1589.550781 965.28125 C 1589.550781 936.214844 1604.390625 916.167969 1634.785156 916.167969 C 1652.699219 916.167969 1663.011719 924.476562 1671.339844 937.828125 L 1648.902344 954.800781 C 1644.382812 946.492188 1641.300781 942.527344 1634.25 942.527344 C 1625.921875 942.527344 1621.769531 950.835938 1621.769531 965.816406 C 1621.769531 980.796875 1626.289062 988.566406 1635.164062 988.566406 C 1641.320312 988.566406 1645.660156 985.140625 1651.628906 976.292969 L 1672.261719 992.367188 Z M 1672.242188 992.367188 "/>
<path fill-rule="nonzero" fill="rgb(88.235474%, 11.372375%, 20.391846%)" fill-opacity="1" d="M 1745.882812 982.253906 L 1741.71875 1009.875 C 1735.382812 1012.945312 1727.421875 1014.929688 1718.191406 1014.929688 C 1701 1014.929688 1693.039062 1006.265625 1693.039062 984.78125 L 1693.039062 943.617188 L 1678.566406 943.617188 L 1678.566406 918.160156 L 1693.039062 918.160156 L 1693.039062 892.1875 L 1724.707031 886.5625 L 1724.707031 918.160156 L 1745.335938 918.160156 L 1745.335938 943.617188 L 1724.707031 943.617188 L 1724.707031 977.921875 C 1724.707031 985.136719 1727.421875 987.308594 1732.84375 987.308594 C 1737.1875 987.308594 1740.804688 985.683594 1745.871094 982.253906 Z M 1745.882812 982.253906 "/>
<path fill-rule="nonzero" fill="rgb(88.235474%, 11.372375%, 20.391846%)" fill-opacity="1" d="M 1811.214844 965.460938 C 1811.214844 949.386719 1806.871094 942.527344 1798.367188 942.527344 C 1789.859375 942.527344 1785.515625 949.386719 1785.515625 965.460938 C 1785.515625 981.53125 1789.859375 988.570312 1798.367188 988.570312 C 1806.871094 988.570312 1811.214844 981.164062 1811.214844 965.460938 M 1843.601562 965.460938 C 1843.601562 998.136719 1824.597656 1014.929688 1798.367188 1014.929688 C 1772.132812 1014.929688 1753.308594 998.136719 1753.308594 965.460938 C 1753.308594 932.78125 1772.125 916.167969 1798.367188 916.167969 C 1824.609375 916.167969 1843.601562 932.417969 1843.601562 965.460938 "/>
<path fill-rule="nonzero" fill="rgb(88.235474%, 11.372375%, 20.391846%)" fill-opacity="1" d="M 1924.300781 920.144531 L 1916.699219 953.910156 C 1912.535156 949.398438 1907.835938 945.96875 1901.5 945.96875 C 1893.539062 945.96875 1888.652344 949.753906 1888.652344 961.316406 L 1888.652344 1012.945312 L 1856.085938 1012.945312 L 1856.085938 918.160156 L 1888.652344 918.160156 L 1888.652344 925.019531 C 1894.261719 919.605469 1900.597656 916.175781 1908.914062 916.175781 C 1915.796875 916.175781 1920.496094 917.804688 1924.292969 920.152344 Z M 1924.300781 920.144531 "/>
<path fill-rule="nonzero" fill="rgb(88.235474%, 11.372375%, 20.391846%)" fill-opacity="1" d="M 2028.894531 918.160156 L 1982.933594 1046.347656 L 1951.8125 1046.347656 L 1963.757812 1016.921875 L 1927.574219 918.160156 L 1962.132812 918.160156 L 1971.183594 951.917969 C 1973.355469 959.859375 1977.339844 976.652344 1978.421875 985.683594 C 1979.691406 976.652344 1983.667969 959.867188 1985.835938 951.558594 L 1994.699219 918.160156 L 2028.902344 918.160156 Z M 2028.894531 918.160156 "/>
<path fill-rule="nonzero" fill="rgb(100%, 100%, 100%)" fill-opacity="1" d="M 1319.617188 1066.058594 L 727.082031 1066.058594 L 727.082031 571.480469 L 1319.71875 571.480469 L 1319.71875 694.476562 L 1282.136719 709.96875 L 1282.136719 995.480469 L 1319.617188 1015.09375 Z M 1319.617188 1066.058594 "/>
<path fill-rule="nonzero" fill="rgb(88.235474%, 11.372375%, 20.391846%)" fill-opacity="1" d="M 1056.238281 983.695312 L 1056.238281 699.324219 L 1010.855469 643.046875 L 1010.855469 1002.988281 Z M 1056.238281 983.695312 "/>
<path fill-rule="nonzero" fill="rgb(13.725281%, 12.156677%, 12.548828%)" fill-opacity="1" d="M 1303.824219 619.757812 L 1011.304688 619.757812 L 1068.171875 690.386719 L 1274.507812 653.832031 Z M 1303.824219 619.757812 "/>
<path fill-rule="nonzero" fill="rgb(13.725281%, 12.156677%, 12.548828%)" fill-opacity="1" d="M 1282.136719 660.289062 L 1282.136719 699.152344 L 1309.722656 687.777344 L 1309.722656 628.234375 Z M 1282.136719 660.289062 "/>
<path fill-rule="nonzero" fill="rgb(98.823547%, 81.96106%, 5.490112%)" fill-opacity="1" d="M 1071.128906 700.011719 L 1071.128906 985.484375 L 1272.039062 993.390625 L 1272.140625 664.398438 Z M 1071.128906 700.011719 "/>
<path fill-rule="nonzero" fill="rgb(13.725281%, 12.156677%, 12.548828%)" fill-opacity="1" d="M 737.078125 581.476562 L 792.355469 581.476562 L 792.355469 731.808594 L 737.078125 731.808594 Z M 737.078125 581.476562 "/>
<path fill-rule="nonzero" fill="rgb(98.823547%, 81.96106%, 5.490112%)" fill-opacity="1" d="M 802.351562 581.476562 L 995.863281 581.476562 L 995.863281 731.808594 L 802.351562 731.808594 Z M 802.351562 581.476562 "/>
<path fill-rule="nonzero" fill="rgb(88.235474%, 11.372375%, 20.391846%)" fill-opacity="1" d="M 737.078125 741.804688 L 865.421875 741.804688 L 865.421875 895.035156 L 737.078125 895.035156 Z M 737.078125 741.804688 "/>
<path fill-rule="nonzero" fill="rgb(98.823547%, 81.96106%, 5.490112%)" fill-opacity="1" d="M 737.078125 905.03125 L 827.9375 905.03125 L 827.9375 1013.183594 L 737.078125 1013.183594 Z M 737.078125 905.03125 "/>
<path fill-rule="nonzero" fill="rgb(88.235474%, 11.372375%, 20.391846%)" fill-opacity="1" d="M 837.933594 905.03125 L 921.398438 905.03125 L 921.398438 1013.183594 L 837.933594 1013.183594 Z M 837.933594 905.03125 "/>
<path fill-rule="nonzero" fill="rgb(13.725281%, 12.156677%, 12.548828%)" fill-opacity="1" d="M 875.417969 741.804688 L 995.5625 741.804688 L 995.5625 895.035156 L 875.417969 895.035156 Z M 875.417969 741.804688 "/>
<path fill-rule="nonzero" fill="rgb(13.725281%, 12.156677%, 12.548828%)" fill-opacity="1" d="M 931.390625 905.03125 L 995.863281 905.03125 L 995.863281 1013.183594 L 931.390625 1013.183594 Z M 931.390625 905.03125 "/>
<path fill-rule="nonzero" fill="rgb(13.725281%, 12.156677%, 12.548828%)" fill-opacity="1" d="M 737.078125 1023.179688 L 1309.625 1023.179688 L 1309.625 1056.0625 L 737.078125 1056.0625 Z M 737.078125 1023.179688 "/>
<path fill-rule="nonzero" fill="rgb(88.235474%, 11.372375%, 20.391846%)" fill-opacity="1" d="M 1005.859375 581.476562 L 1309.722656 581.476562 L 1309.722656 609.761719 L 1005.859375 609.761719 Z M 1005.859375 581.476562 "/>
<path fill-rule="nonzero" fill="rgb(88.235474%, 11.372375%, 20.391846%)" fill-opacity="1" d="M 1294.269531 1013.183594 L 1275.730469 1003.539062 L 1067.0625 995.332031 L 1025.28125 1013.183594 Z M 1294.269531 1013.183594 "/>
</svg>
